<?xml version="1.0" encoding="UTF-8"?>
<svg width="34px" height="36px" viewBox="0 0 34 36" version="1.1" xmlns="http://www.w3.org/2000/svg" xmlns:xlink="http://www.w3.org/1999/xlink">
    <!-- Generator: Sketch 48.2 (47327) - http://www.bohemiancoding.com/sketch -->
    <title>img-tripactions-logo2</title>
    <desc>Created with Sketch.</desc>
    <defs>
        <polygon id="path-1" points="0 0 34 0 34 36 0 36"></polygon>
        <path d="M24.9436412,25.1471644 L16.5433455,29.9959783 C14.8640103,30.9655588 12.7942239,30.9655588 11.1148888,29.9959783 L2.714593,25.1471644 C1.03435284,24.1775751 0.000360251672,22.3857017 0.000360251672,20.4465407 L0.000360251672,10.7498066 C0.000360251672,8.81064556 1.03435284,7.01876338 2.714593,6.04918287 L11.1148888,1.20036896 C12.7942239,0.230788457 14.8640103,0.230788457 16.5433455,1.20036896 L24.9436412,6.04918287 C26.6229764,7.01876338 27.657874,8.81064556 27.657874,10.7498066 L27.657874,20.4465407 C27.657874,22.3857017 26.6229764,24.1775751 24.9436412,25.1471644 Z" id="path-3"></path>
        <path d="M0.646370579,0.480184748 L13.8614211,0.480184748 L13.8614211,3.0663374 L10.6663403,3.0663374 L10.6663403,11.129325 L7.71440294,11.129325 L7.71440294,3.0663374 L3.23135206,3.06543488 C1.80419309,3.06543488 0.646370579,1.90790021 0.646370579,0.480184748 Z" id="path-5"></path>
        <path d="M3.32090535,2.11202894 L1.40115055,2.11202894 C0.687114164,2.11202894 0.108655419,1.53370844 0.108655419,0.819850711 L3.32090535,0.819850711 L3.32090535,2.11202894 Z" id="path-7"></path>
        <path d="M5.07823058,1.70440855 L1.87683213,1.70440855 C1.16279574,1.70440855 0.584336998,1.12338049 0.584336998,0.409522761 L5.07823058,0.41223032 L5.07823058,1.70440855 Z" id="path-9"></path>
    </defs>
    <g id="Page-1" stroke="none" stroke-width="1" fill="none" fill-rule="evenodd">
        <g id="img-tripactions-logo2">
            <g id="Group-3">
                <mask id="mask-2" fill="white">
                    <use xlink:href="#path-1"></use>
                </mask>
                <g id="Clip-2"></g>
                <polygon id="Fill-1" fill="#FF671B" mask="url(#mask-2)" points="0 36 34 36 34 0 0 0"></polygon>
            </g>
            <g id="Group" transform="translate(2.818723, 2.696743)">
                <g id="Group-6">
                    <mask id="mask-4" fill="white">
                        <use xlink:href="#path-3"></use>
                    </mask>
                    <g id="Clip-5"></g>
                    <polygon id="Fill-4" fill="#FFFFFF" mask="url(#mask-4)" points="-4.39295282 35.1472868 32.051187 35.1472868 32.051187 -3.95093063 -4.39295282 -3.95093063"></polygon>
                </g>
                <g id="Group-9" transform="translate(5.271976, 10.617879)">
                    <mask id="mask-6" fill="white">
                        <use xlink:href="#path-5"></use>
                    </mask>
                    <g id="Clip-8"></g>
                    <polygon id="Fill-7" fill="#FF671B" mask="url(#mask-6)" points="-3.74694249 15.5534414 18.2547342 15.5534414 18.2547342 -3.94393168 -3.74694249 -3.94393168"></polygon>
                </g>
                <g id="Group-12" transform="translate(9.665289, 14.157173)">
                    <mask id="mask-8" fill="white">
                        <use xlink:href="#path-7"></use>
                    </mask>
                    <g id="Clip-11"></g>
                    <polygon id="Fill-10" fill-opacity="0.3825" fill="#FF671B" mask="url(#mask-8)" points="-4.28465765 6.53614536 7.71421842 6.53614536 7.71421842 -3.60426571 -4.28465765 -3.60426571"></polygon>
                </g>
                <g id="Group-15" transform="translate(7.907964, 13.272349)">
                    <mask id="mask-10" fill="white">
                        <use xlink:href="#path-9"></use>
                    </mask>
                    <g id="Clip-14"></g>
                    <polygon id="Fill-13" fill-opacity="0.7582" fill="#FF671B" mask="url(#mask-10)" points="-3.80897607 6.12852497 9.47154365 6.12852497 9.47154365 -4.01459366 -3.80897607 -4.01459366"></polygon>
                </g>
            </g>
        </g>
    </g>
</svg>